<?xml version="1.0" encoding="UTF-8" standalone="no"?>
<!-- Created with Inkscape (http://www.inkscape.org/) -->

<svg
   width="500"
   height="150"
   viewBox="0 0 132.29166 39.687501"
   version="1.1"
   id="svg1"
   xml:space="preserve"
   xmlns="http://www.w3.org/2000/svg"
   xmlns:svg="http://www.w3.org/2000/svg"><defs
     id="defs1" /><g
     id="g15"
     transform="matrix(1.798956,0,0,1.798956,-2.3525882,-99.149695)"><path
       style="font-size:102.779px;font-family:Machine;-inkscape-font-specification:'Machine, Normal';text-align:center;text-anchor:middle;fill:#13837c;fill-opacity:1;stroke:none;stroke-width:0.359;stroke-linecap:round;stroke-linejoin:round;stroke-dasharray:none"
       d="m 151.89236,168.81588 -9.61223,11.7597 -16.78601,4.97496 -15.38812,-8.11765 v -60.15452 l 12.90557,-6.69541 21.12915,6.26216 7.52651,9.64165 v 14.12518 l -12.30305,-0.97157 V 128.1046 l -9.85567,-1.79923 v 43.71596 l 9.7129,-1.72969 v -9.34028 l -5.5527,0.52371 v -13.24852 l 18.22365,0.34375 z"
       id="text1"
       aria-label="G"
       transform="matrix(0.24277962,0,0,0.24277962,-12.468541,30.198243)" /><path
       id="rect1-2"
       style="fill:#13837c;fill-opacity:1;stroke:none;stroke-width:0.0907207;stroke-linecap:round;stroke-linejoin:round"
       d="m 88.520687,11.679088 -25.88158,7.599621 v 36.39322 l 25.88158,7.59962 z m -0.979554,2.35791 a 0.16453321,0.16453321 0 0 1 0.19893,0.12005 0.16453321,0.16453321 0 0 1 -0.118722,0.19893 l -8.843871,2.21545 v 3.764211 l 1.311949,-0.0581 a 0.16454967,0.16454967 0 0 1 0.04363,0.0218 l 2.375564,-0.29101 a 0.16454967,0.16454967 0 0 1 0.152724,0.0837 l 0.196681,-0.0183 a 0.16454967,0.16454967 0 0 1 0.08599,0.0376 l 0.595495,0.0729 a 0.16454967,0.16454967 0 0 1 0.03273,0.0205 l 0.0677,-0.0134 a 0.16454967,0.16454967 0 0 1 0.1662,0.22683 l 0.06065,0.0291 a 0.16454967,0.16454967 0 0 1 -0.03273,0.30799 l -3.875537,0.9215 2.394819,-0.2984 0.0086,-0.001 a 0.16454967,0.16454967 0 0 1 0.154009,0.0956 h 0.0015 a 0.16454967,0.16454967 0 0 1 0.0908,0.1007 0.16454967,0.16454967 0 0 1 -0.0015,0.21209 0.16454967,0.16454967 0 0 1 -0.123524,0.1662 l -0.119032,0.0205 -3.519068,0.72768 v 3.78955 a 0.16454967,0.16454967 0 0 1 -0.06898,0.10306 l 0.278819,0.0449 a 0.16453321,0.16453321 0 0 1 0.0523,0.0196 0.16453321,0.16453321 0 0 1 0.0025,0 l 0.006,0.004 0.08503,0.0483 a 0.16454967,0.16454967 0 0 1 -0.02085,0.29613 l -0.349079,0.13798 v 3.81167 a 0.16454967,0.16454967 0 0 1 -0.145668,0.16332 l -2.467649,0.27304 2.468933,-0.0376 a 0.16454967,0.16454967 0 0 1 0.167481,0.16491 v 0.1877 a 0.16454967,0.16454967 0 0 1 -0.144378,0.16395 l -4.160767,0.51528 a 0.16454967,0.16454967 0 0 1 0.02309,0.0473 l 0.399133,0.11426 a 0.16454967,0.16454967 0 0 1 0.0051,0.005 l 0.726401,0.0366 a 0.16454967,0.16454967 0 0 1 0.121278,0.0725 l 1.834612,0.0341 h 0.01213 a 0.16454967,0.16454967 0 0 1 0.113911,0.068 l 0.966718,0.0956 a 0.16454967,0.16454967 0 0 1 0.14791,0.16395 v 3.98944 a 0.16453321,0.16453321 0 0 1 -0.0015,0.002 v 1.7669 l 1.350775,0.22557 a 0.16454967,0.16454967 0 0 1 0.03884,0.0302 l 2.368508,0.21239 0.01924,10e-4 a 0.16454967,0.16454967 0 0 1 0.130906,0.11297 l 0.219782,0.0265 a 0.16454967,0.16454967 0 0 1 0.06898,0.0496 l 0.6125,0.20504 a 0.16454967,0.16454967 0 0 1 0.02793,0.0265 l 0.07508,0.002 a 0.16454967,0.16454967 0 0 1 0.127383,0.23775 l 0.08727,0.0605 a 0.16454967,0.16454967 0 0 1 -0.08856,0.29935 l -3.908254,0.102 2.500372,0.2169 a 0.16454967,0.16454967 0 0 1 0.130907,0.11639 l 0.0135,0.009 a 0.16454967,0.16454967 0 0 1 0.07379,0.11143 0.16454967,0.16454967 0 0 1 -0.0071,0.20631 0.16454967,0.16454967 0 0 1 -0.159138,0.15145 l -0.12,-0.005 -3.49468,-0.0183 v 0.59775 3.16516 3.15041 l 2.30754,0.63303 a 0.16454967,0.16454967 0 0 1 0.05711,0.0545 l 4.02954,0.79314 a 0.16454967,0.16454967 0 0 1 0.109088,0.18674 l 0.48769,0.11167 a 0.16454967,0.16454967 0 0 1 0.102992,0.0933 l 1.045325,0.45464 a 0.16454967,0.16454967 0 0 1 0.04843,0.0559 l 0.171009,0.0231 a 0.16454967,0.16454967 0 0 1 0.06417,0.3032 l -0.01829,0.0118 0.251224,0.19541 a 0.16454967,0.16454967 0 0 1 -0.115184,0.29325 l -8.390518,-0.75656 5.985753,1.22243 0.0073,10e-4 a 0.16454967,0.16454967 0 0 1 0.112613,0.15754 l 0.07508,0.0533 a 0.16454967,0.16454967 0 0 1 0.06449,0.12612 0.16454967,0.16454967 0 0 1 -0.0025,0.25732 0.16454967,0.16454967 0 0 1 -0.183204,0.18545 l -0.205983,-0.0341 -5.894632,-0.74565 v 6.16126 a 0.16454967,0.16454967 0 0 1 -0.157858,0.16491 l -0.426729,0.0182 a 0.16453321,0.16453321 0 0 1 -0.04008,0.0959 0.16453321,0.16453321 0 0 1 -0.232933,0.006 l -0.143099,-0.13443 a 0.16454967,0.16454967 0 0 1 0.10555,-0.28493 l 0.565339,-0.0244 v -6.18948 a 0.16454967,0.16454967 0 0 1 0.18545,-0.16363 l 5.838805,0.73859 a 0.16454967,0.16454967 0 0 1 -0.0097,-0.0388 0.16454967,0.16454967 0 0 1 0.04974,-0.0764 l -5.968747,-1.21891 a 0.16454967,0.16454967 0 0 1 -0.132186,-0.16138 v -0.30417 a 0.16454967,0.16454967 0 0 1 0.179675,-0.16363 l 8.091799,0.72992 a 0.16454967,0.16454967 0 0 1 -0.05454,-0.14918 l -0.169729,-0.0231 a 0.16454967,0.16454967 0 0 1 -0.127383,-0.18287 l -0.944575,-0.41004 a 0.16454967,0.16454967 0 0 1 -0.0073,-0.0145 l -1.506065,-0.3433 a 0.16454967,0.16454967 0 0 1 -0.100751,-0.14791 l -3.505594,-0.68983 h -0.004 l -0.01085,-0.002 a 0.16454967,0.16454967 0 0 1 -0.08119,-0.11638 l -1.711082,-0.46813 a 0.16454967,0.16454967 0 0 1 -0.121291,-0.15882 v -6.44166 a 0.16453321,0.16453321 0 0 1 0.0015,-0.002 v -0.76138 a 0.16454967,0.16454967 0 0 1 0.164916,-0.16362 l 2.860689,0.0145 -2.898226,-0.25348 a 0.16454967,0.16454967 0 0 1 -0.15048,-0.16362 v -0.18803 a 0.16454967,0.16454967 0 0 1 0.160107,-0.1649 l 4.683425,-0.12135 a 0.16454967,0.16454967 0 0 1 -0.07412,-0.0703 l -0.528757,-0.1771 a 0.16454967,0.16454967 0 0 1 -0.0035,-0.008 l -0.86822,-0.10424 a 0.16454967,0.16454967 0 0 1 -0.07026,-0.0834 l -2.09931,-0.18704 a 0.16454967,0.16454967 0 0 1 -0.05808,-0.0677 l -1.048854,-0.17582 a 0.16454967,0.16454967 0 0 1 -0.13732,-0.16138 v -3.98976 a 0.16453321,0.16453321 0 0 1 0.0015,-0.002 v -1.75729 l -1.290135,-0.12831 a 0.16454967,0.16454967 0 0 1 -0.02309,-0.0257 l -2.126907,-0.0388 a 0.16454967,0.16454967 0 0 1 -0.09721,-0.0946 l -0.197645,-0.009 a 0.16454967,0.16454967 0 0 1 -0.03144,-0.0328 l -0.534855,-0.15272 a 0.16454967,0.16454967 0 0 1 -0.01444,-0.0192 l -0.0523,0.004 a 0.16454967,0.16454967 0 0 1 -0.13797,-0.21465 l -0.06545,-0.0449 a 0.16454967,0.16454967 0 0 1 0.07251,-0.30065 l 3.310516,-0.40973 -2.122092,0.0328 a 0.16454967,0.16454967 0 0 1 -0.06898,-0.0645 l -0.0754,-0.0423 a 0.16454967,0.16454967 0 0 1 -0.0738,-0.14567 0.16454967,0.16454967 0 0 1 0.017,-0.1309 0.16454967,0.16454967 0 0 1 0.123524,-0.18193 l 0.100751,-0.006 3.219716,-0.3555 v -3.77608 a 0.16454967,0.16454967 0 0 1 0.0921,-0.13476 l -0.386944,-0.0628 a 0.16454967,0.16454967 0 0 1 -0.03624,-0.3154 l 0.344271,-0.13957 v -3.81231 a 0.16454967,0.16454967 0 0 1 0.132192,-0.1614 l 2.835338,-0.58682 -2.804858,0.34909 a 0.16454967,0.16454967 0 0 1 -0.184489,-0.16236 v -0.18802 a 0.16454967,0.16454967 0 0 1 0.126093,-0.1601 l 4.722252,-1.12298 a 0.16454967,0.16454967 0 0 1 -0.08727,-0.0545 l -0.499881,-0.0607 a 0.16454967,0.16454967 0 0 1 -0.0051,-0.006 l -0.863405,0.0789 a 0.16454967,0.16454967 0 0 1 -0.08471,-0.0654 l -2.078456,0.25444 a 0.16454967,0.16454967 0 0 1 -0.07283,-0.0545 l -1.029603,0.0449 a 0.16454967,0.16454967 0 0 1 -0.172297,-0.16365 v -3.854981 l -5.014221,1.25612 0.152725,39.316801 a 0.16453321,0.16453321 0 0 1 -0.163632,0.16492 0.16453321,0.16453321 0 0 1 -0.16492,-0.16365 L 73.104768,17.782948 a 0.16454967,0.16454967 0 0 1 0.124815,-0.16011 z m -15.483512,4.81722 c 0.177855,0.0327 0.311516,0.30167 0.310263,0.656781 -0.0098,3.00623 -1.146318,4.87036 -2.287014,6.39356 1.131823,1.23929 2.256852,2.82057 2.247226,5.82469 -0.0098,3.00354 -1.145074,4.71154 -2.284764,6.07814 1.130839,1.3933 2.254599,3.12741 2.244977,6.12886 -0.0097,3.00088 -1.144144,4.5531 -2.282834,5.7634 1.129889,1.54709 2.252984,3.43376 2.243372,6.43237 -0.0015,0.40473 -0.177662,0.69342 -0.392721,0.64492 -0.214009,-0.0481 -0.385458,-0.41217 -0.384053,-0.81337 0.0015,-0.43316 -0.03065,-0.838 -0.08951,-1.22081 l -4.092105,-0.83197 c -0.05559,0.3419 -0.08684,0.71457 -0.08823,1.12682 -9.98e-4,0.38186 -0.157607,0.65634 -0.349078,0.61316 -0.190608,-0.0428 -0.343598,-0.38431 -0.342348,-0.76299 0.0085,-2.80591 1.025988,-4.23174 2.100594,-5.39507 -1.066419,-1.48144 -2.074363,-3.20879 -2.065941,-6.01656 0.0085,-2.80843 1.027044,-4.37427 2.102518,-5.68511 -1.067323,-1.33626 -2.076291,-2.92637 -2.067869,-5.73646 0.0085,-2.81075 1.028057,-4.51641 2.104448,-5.97516 -1.068228,-1.19074 -2.078226,-2.64361 -2.069795,-5.45603 0.001,-0.37968 0.156379,-0.71845 0.347482,-0.75689 0.191976,-0.0387 0.347469,0.23993 0.346191,0.62277 -0.0015,0.4134 0.02755,0.78783 0.08118,1.13163 l 4.102051,-0.73731 c 0.06142,-0.38215 0.09567,-0.78757 0.09721,-1.22211 0.0015,-0.40228 0.175547,-0.763131 0.390151,-0.806291 0.02695,-0.005 0.05321,-0.005 0.07862,-10e-4 z m -0.987892,3.552451 -3.301534,0.53901 v 3.2e-4 c 0.385739,0.88356 0.976703,1.54578 1.611626,2.21515 0.649196,-0.85354 1.271131,-1.71179 1.689908,-2.75448 z m -5.444484,0.96382 0.451437,3.19661 -0.661268,0.0896 -0.06641,-0.59838 -0.462343,0.066 -0.06576,0.6125 -0.625974,0.0847 0.439241,-3.27779 z m -0.453035,0.70618 -0.05968,0.0106 -0.150796,1.38414 0.336889,-0.0506 z m 4.202153,2.74776 c -0.622037,0.80581 -1.201365,1.59471 -1.592692,2.53887 l 3.230949,-0.28266 c -0.411886,-0.89987 -1.011889,-1.58381 -1.638257,-2.25621 z m -3.866869,1.62189 0.437317,0.36383 v 0.84865 l -0.633673,0.0623 v -0.62789 l -0.380529,0.0401 v 1.96968 l 0.380529,-0.0311 v -0.75783 l 0.64009,-0.0584 v 0.91923 l -0.472288,0.52651 -0.682768,0.0504 -0.480951,-0.44598 v -2.31878 l 0.39336,-0.45015 z m 5.939552,2.04958 -4.073175,0.28973 c -0.06374,0.37948 -0.09924,0.78674 -0.100751,1.2298 -0.001,0.38315 0.02329,0.7366 0.06963,1.06587 l 4.123224,-0.18096 c 0.05317,-0.35024 0.08265,-0.72454 0.08406,-1.12714 0.0015,-0.46557 -0.03539,-0.88836 -0.102991,-1.2773 z m -5.898161,3.00346 0.395926,0.39304 v 0.78833 l -0.617953,0.0231 v -0.56855 l -0.399458,0.0179 v 1.96937 l 0.39336,-0.008 v -0.45978 l -0.233578,0.006 v -0.61924 l 0.870463,-0.0291 v 1.24457 l -0.497635,0.50469 -0.676348,0.009 -0.471651,-0.48255 v -2.31879 l 0.387268,-0.42544 z m 5.515387,0.86533 -3.36185,0.0925 c 0.384398,0.97204 0.98877,1.73484 1.640177,2.51097 0.666329,-0.78523 1.303445,-1.57971 1.721673,-2.60337 z m -6.364993,4.1845 0.849606,0.008 0.395926,0.41742 v 0.78833 l -0.617953,-0.0149 v -0.56855 l -0.399458,-0.006 v 1.9697 l 0.39336,0.016 v -0.45977 l -0.233578,-0.008 v -0.61923 l 0.870463,0.0244 v 1.24457 l -0.497635,0.47422 -0.676348,-0.033 -0.471651,-0.51143 v -2.31878 z m 4.638185,0.0808 c -0.656063,0.76043 -1.264904,1.50892 -1.655256,2.47116 l 3.359605,0.17134 c -0.411614,-1.03279 -1.043176,-1.84199 -1.704349,-2.6425 z m -2.023589,3.83767 c -0.04824,0.32829 -0.07509,0.6811 -0.07636,1.06393 -0.0015,0.44268 0.03209,0.84999 0.09337,1.23045 l 4.069003,0.38503 c 0.06996,-0.38663 0.109359,-0.808 0.111022,-1.27312 0.0015,-0.40236 -0.02574,-0.77686 -0.0767,-1.12844 z m -2.614596,1.08703 0.849606,0.0597 0.395926,0.4418 v 0.78833 l -0.617953,-0.0527 v -0.56854 l -0.399458,-0.0311 v 1.96937 l 0.39336,0.0402 v -0.45946 l -0.233578,-0.0224 v -0.61923 l 0.870463,0.0773 v 1.24459 l -0.497635,0.44372 -0.676348,-0.0745 -0.471651,-0.54031 v -2.31845 z m 3.030095,2.63706 c 0.385253,0.95236 0.959489,1.75406 1.576005,2.5732 0.630119,-0.65658 1.234355,-1.32538 1.651732,-2.2145 z m -3.329446,2.32905 1.453763,0.19154 v 0.62853 l -0.417423,-0.0581 v 2.62453 l -0.632393,-0.10813 v -2.60465 l -0.403947,-0.0561 z m 4.90032,1.90455 c -0.638461,0.65313 -1.232746,1.30008 -1.623493,2.17246 l 3.294152,0.61571 c -0.411629,-1.0501 -1.027498,-1.92108 -1.670659,-2.78817 z"
       transform="matrix(0.39102501,0,0,0.39102501,-21.166353,51.492047)" /><path
       style="display:inline;fill:none;fill-opacity:1;stroke:#13837c;stroke-width:0.706584;stroke-linecap:round;stroke-linejoin:round;stroke-dasharray:5.65266, 1.41318, 0.706584, 1.41318;stroke-dashoffset:0;stroke-opacity:1"
       d="m 61.785589,18.749458 27.72301,-8.143 27.666431,8.07258 0.1676,37.679821 -27.696754,7.98532 -27.840639,-8.05724 z"
       id="path15"
       transform="matrix(0.39102501,0,0,0.39102501,-21.166353,51.492047)" /><path
       d="m 29.869637,66.253663 -2.426401,0.0064 -0.928307,-0.902698 v -4.283013 l 0.960317,-0.749048 h 1.446878 l 0.947513,0.749048 v 4.00132 l -0.601799,0.448148 h 0.601799 z m -1.254815,-1.177989 v -3.610791 h -0.78746 v 3.610791 z m 5.249738,0.281693 -0.928306,0.889894 h -1.536508 l -0.877089,-0.889894 v -5.032061 h 1.325237 v 4.750368 h 0.749048 v -4.750368 h 1.267618 z m 4.590311,0.889894 h -1.325237 l -0.134445,-1.107566 h -0.94111 l -0.134445,1.107566 h -1.293227 l 0.9091,-5.921955 h 2.016666 z m -1.562116,-2.285554 -0.256084,-2.490422 h -0.12164 l -0.307302,2.490422 z m 5.518629,1.39566 -0.979523,0.889894 h -2.336772 v -5.921955 h 2.458412 l 0.857883,0.75545 z m -1.267619,-0.281693 v -3.610791 h -0.793862 v 3.610791 z m 5.236936,1.171587 H 45.07467 v -2.39439 h -0.768253 v 2.39439 h -1.229206 v -5.921955 h 2.311163 l 0.947512,0.749048 v 1.632538 l -0.691428,0.582593 0.736243,0.640211 z m -1.299629,-3.501956 v -1.280422 h -0.755449 v 1.280422 z m 5.275344,2.612062 -0.928306,0.889894 h -1.536507 l -0.87709,-0.889894 v -5.032061 h 1.325237 v 4.750368 h 0.749048 v -4.750368 h 1.267618 z m 3.969306,-2.010263 -1.005132,0.889894 h -0.966719 v 2.010263 h -1.248412 v -5.921955 h 2.285554 l 0.934709,0.749048 z m -1.254814,-0.256085 v -1.626136 h -0.66582 v 1.626136 z m 4.443064,3.156242 h -2.586454 v -5.921955 h 1.325237 v 4.750368 h 1.261217 z m 1.997461,0 h -1.325237 v -5.921955 h 1.325237 z m 4.026934,-0.889894 -0.947513,0.889894 h -1.389258 l -0.992328,-0.889894 v -4.283013 l 0.813069,-0.749048 h 1.626136 l 0.87709,0.749048 v 1.536507 h -1.274021 v -1.145978 h -0.774655 v 3.610791 h 0.774655 v -1.382856 h 1.286825 z m 4.500685,0.889894 H 66.713814 L 66.57937,65.139695 h -0.941111 l -0.134444,1.107566 h -1.293227 l 0.9091,-5.921955 h 2.016666 z m -1.562116,-2.285554 -0.256084,-2.490422 h -0.12164 l -0.307302,2.490422 z m 5.166511,-2.496824 H 70.80477 v 4.782378 H 69.517945 V 61.464883 H 68.68567 v -1.139577 h 2.957777 z m 4.49428,4.782378 h -1.325238 l -0.134444,-1.107566 h -0.941111 l -0.134444,1.107566 h -1.293227 l 0.9091,-5.921955 h 2.016666 z m -1.562116,-2.285554 -0.256084,-2.490422 h -0.121641 l -0.307301,2.490422 z"
       id="text15"
       style="font-size:7.36243px;font-family:Machine;-inkscape-font-specification:'Machine, Normal';text-align:center;text-anchor:middle;fill:none;stroke:#13837c;stroke-width:0.412442;stroke-linecap:round;stroke-linejoin:round"
       transform="scale(0.96372658,1.0376387)"
       aria-label="QUADRUPLICATA" /></g></svg>
